<svg viewBox="0 0 3500 3500" xmlns="http://www.w3.org/2000/svg">
  <rect x="0" y="0" width="3500" height="3500" style="fill:white;stroke:black;stroke-width:5"/>
  <path  d="M 1953 2986 L 1920 2960 L 1892 2920 L 1870 2867 L 1854 2801 L 1843 2721 L 1837 2628 L 1837 2522 L 1842 2429 L 1852 2349 L 1869 2283 L 1891 2230 L 1918 2190 L 1950 2163 L 1989 2149 L 2033 2149 L 2071 2162 L 2104 2188 L 2132 2228 L 2154 2281 L 2170 2347 L 2181 2427 L 2187 2520 L 2187 2626 L 2182 2719 L 2172 2799 L 2155 2865 L 2133 2918 L 2106 2958 L 2074 2985 L 2035 2999 L 1991 2999 Z" style="fill:red;stroke:black;stroke-width:30"/>
  <path  d="M 1428 2986 L 1395 2960 L 1367 2920 L 1345 2867 L 1329 2801 L 1318 2721 L 1312 2628 L 1312 2522 L 1317 2429 L 1327 2349 L 1344 2283 L 1366 2230 L 1393 2190 L 1425 2163 L 1464 2149 L 1508 2149 L 1546 2162 L 1579 2188 L 1607 2228 L 1629 2281 L 1645 2347 L 1656 2427 L 1662 2520 L 1662 2626 L 1657 2719 L 1647 2799 L 1630 2865 L 1608 2918 L 1581 2958 L 1549 2985 L 1510 2999 L 1466 2999 Z" style="fill:red;stroke:black;stroke-width:30"/>
  <path  d="M 2237 3000 A 225 225 0 0 0 1787 3000 Z" style="fill:red;stroke:black;stroke-width:30"/>
  <path  d="M 1712 3000 A 225 225 0 0 0 1262 3000 Z" style="fill:red;stroke:black;stroke-width:30"/>
  <path  d="M 971 2036 L 947 2008 L 927 1966 L 911 1910 L 899 1840 L 891 1756 L 887 1657 L 887 1545 L 890 1446 L 898 1362 L 909 1291 L 925 1235 L 944 1193 L 968 1165 L 995 1150 L 1026 1150 L 1053 1150 L 1077 1150 L 1097 1150 L 1113 1150 L 1125 1150 L 1133 1150 L 1137 1150 L 1137 1150 L 1137 1164 L 1137 1192 L 1137 1234 L 1137 1290 L 1137 1360 L 1137 1444 L 1137 1543 L 1137 1655 L 1134 1754 L 1126 1838 L 1115 1909 L 1099 1965 L 1080 2007 L 1056 2035 L 1029 2050 L 998 2050 Z" style="fill:red;stroke:black;stroke-width:30"/>
  <path  d="M 2529 2036 L 2553 2008 L 2573 1966 L 2589 1910 L 2601 1840 L 2609 1756 L 2613 1657 L 2613 1545 L 2610 1446 L 2602 1362 L 2591 1291 L 2575 1235 L 2556 1193 L 2532 1165 L 2505 1150 L 2474 1150 L 2447 1150 L 2423 1150 L 2403 1150 L 2387 1150 L 2375 1150 L 2367 1150 L 2363 1150 L 2363 1150 L 2363 1164 L 2363 1192 L 2363 1234 L 2363 1290 L 2363 1360 L 2363 1444 L 2363 1543 L 2363 1655 L 2366 1754 L 2374 1838 L 2385 1909 L 2401 1965 L 2420 2007 L 2444 2035 L 2471 2050 L 2502 2050 Z" style="fill:red;stroke:black;stroke-width:30"/>
  <circle cx="1012" cy="2050" r="175" style="fill:red;stroke:black;stroke-width:30"/>
  <circle cx="2487" cy="2050" r="175" style="fill:red;stroke:black;stroke-width:30"/>
  <path  d="M 2343 1149 L 2305 1114 L 2248 1085 L 2172 1061 L 2076 1043 L 1961 1031 L 1827 1025 L 1674 1025 L 1540 1030 L 1426 1042 L 1330 1059 L 1253 1082 L 1195 1111 L 1157 1147 L 1137 1188 L 1137 1235 L 1138 1280 L 1141 1323 L 1146 1364 L 1153 1403 L 1162 1440 L 1172 1475 L 1184 1508 L 1198 1539 L 1211 1571 L 1225 1605 L 1239 1639 L 1253 1674 L 1266 1710 L 1280 1748 L 1294 1786 L 1308 1825 L 1320 1864 L 1330 1903 L 1339 1942 L 1346 1981 L 1351 2020 L 1355 2059 L 1357 2098 L 1357 2137 L 1369 2171 L 1393 2200 L 1430 2225 L 1479 2245 L 1540 2260 L 1614 2270 L 1700 2275 L 1798 2275 L 1883 2271 L 1957 2261 L 2018 2247 L 2067 2227 L 2104 2203 L 2128 2173 L 2141 2139 L 2141 2100 L 2142 2061 L 2145 2022 L 2150 1983 L 2157 1944 L 2166 1905 L 2176 1865 L 2188 1826 L 2202 1787 L 2215 1749 L 2229 1712 L 2243 1676 L 2257 1641 L 2271 1607 L 2285 1574 L 2299 1542 L 2313 1511 L 2325 1478 L 2335 1442 L 2344 1405 L 2351 1366 L 2356 1325 L 2360 1282 L 2362 1237 L 2362 1190 Z" style="fill:red;stroke:black;stroke-width:30"/>
  <path  d="M 2098 717 L 2096 703 L 2092 696 L 2087 696 L 2080 702 L 2072 715 L 2063 735 L 2053 762 L 2044 788 L 2037 814 L 2032 839 L 2029 863 L 2027 887 L 2028 911 L 2031 934 L 2036 956 L 2041 976 L 2045 993 L 2048 1007 L 2051 1018 L 2053 1027 L 2055 1033 L 2056 1036 L 2056 1036 L 2056 1036 L 2058 1036 L 2060 1036 L 2064 1036 L 2068 1036 L 2074 1036 L 2080 1036 L 2087 1036 L 2093 1034 L 2099 1028 L 2103 1020 L 2106 1009 L 2108 995 L 2108 979 L 2108 959 L 2106 937 L 2105 914 L 2103 890 L 2102 866 L 2101 842 L 2100 816 L 2100 790 L 2099 764 L 2099 737 Z" style="fill:red;stroke:black;stroke-width:30"/>
  <path  d="M 1400 717 L 1402 703 L 1406 696 L 1411 696 L 1418 702 L 1426 715 L 1435 735 L 1445 762 L 1454 788 L 1461 814 L 1466 839 L 1469 863 L 1471 887 L 1470 911 L 1467 934 L 1462 956 L 1457 976 L 1453 993 L 1450 1007 L 1447 1018 L 1445 1027 L 1443 1033 L 1442 1036 L 1442 1036 L 1442 1036 L 1440 1036 L 1438 1036 L 1434 1036 L 1430 1036 L 1424 1036 L 1418 1036 L 1411 1036 L 1405 1034 L 1400 1028 L 1396 1020 L 1393 1009 L 1391 995 L 1390 979 L 1390 959 L 1392 937 L 1393 914 L 1395 890 L 1396 866 L 1397 842 L 1398 816 L 1398 790 L 1399 764 L 1399 737 Z" style="fill:red;stroke:black;stroke-width:30"/>
  <path  d="M 1920 560 L 1902 543 L 1881 529 L 1857 518 L 1831 509 L 1801 503 L 1768 500 L 1732 500 L 1700 502 L 1670 508 L 1643 516 L 1619 527 L 1599 541 L 1581 557 L 1567 577 L 1555 599 L 1544 624 L 1532 652 L 1521 682 L 1510 716 L 1499 752 L 1488 791 L 1477 833 L 1466 878 L 1458 920 L 1453 959 L 1450 995 L 1451 1029 L 1455 1060 L 1462 1088 L 1472 1113 L 1486 1135 L 1504 1155 L 1528 1172 L 1556 1186 L 1590 1197 L 1628 1206 L 1672 1212 L 1721 1215 L 1775 1215 L 1823 1213 L 1867 1207 L 1905 1199 L 1939 1188 L 1967 1174 L 1991 1158 L 2009 1138 L 2023 1116 L 2033 1090 L 2041 1062 L 2045 1032 L 2047 998 L 2046 962 L 2042 923 L 2035 881 L 2024 836 L 2013 794 L 2002 755 L 1991 719 L 1980 685 L 1969 654 L 1957 626 L 1946 601 L 1934 579 Z" style="fill:red;stroke:black;stroke-width:30"/>
  <ellipse  cx="1637" cy="857" rx="69" ry="51" style="fill:yellow;stroke:yellow;stroke-width:0"/>
  <path  d="M 1637 806 A 106 106, 0, 0, 0, 1637 908 A 106 106, 0, 0, 0, 1637 806 Z" style="fill:blue;stroke:blue;stroke-width:0"/>
  <ellipse  cx="1861" cy="857" rx="69" ry="51" style="fill:yellow;stroke:yellow;stroke-width:0"/>
  <path  d="M 1861 806 A 106 106, 0, 0, 0, 1861 908 A 106 106, 0, 0, 0, 1861 806 Z" style="fill:blue;stroke:blue;stroke-width:0"/>
  <path  d="M 1588 1036 L 1910 1036" style="fill:none;stroke:black;stroke-width:18"/>
  <path  d="M 1680 1036 L 1652 1150 L 1624 1036 Z" style="fill:#ffffff;stroke:black;stroke-width:3"/>
  <path  d="M 1874 1036 L 1846 1150 L 1818 1036 Z" style="fill:#ffffff;stroke:black;stroke-width:3"/>
</svg>