<svg viewBox="0 0 3500 3500" xmlns="http://www.w3.org/2000/svg">
  <rect x="0" y="0" width="3500" height="3500" style="fill:white;stroke:black;stroke-width:5"/>
  <path  d="M 2012 2062 Q 2187 2062 2187 2530 Q 2187 2999 2012 2999 Q 1837 2999 1837 2531 Q 1837 2062 2012 2062" style="fill:red;stroke:black;stroke-width:5"/>
  <path  d="M 1487 2062 Q 1662 2062 1662 2530 Q 1662 2999 1487 2999 Q 1312 2999 1312 2531 Q 1312 2062 1487 2062" style="fill:red;stroke:black;stroke-width:5"/>
  <path  d="M 2237 3000 A 225 225 0 0 0 1787 3000 Z" style="fill:red;stroke:black;stroke-width:5"/>
  <path  d="M 1712 3000 A 225 225 0 0 0 1262 3000 Z" style="fill:red;stroke:black;stroke-width:5"/>
  <path  d="M 1012 1262 L 1137 1262 L 1137 1712 Q 1137 2162 1012 2162 Q 887 2162 887 1712 Q 887 1262 1012 1262" style="fill:red;stroke:black;stroke-width:5"/>
  <path  d="M 2488 1262 L 2363 1262 L 2363 1712 Q 2363 2162 2488 2162 Q 2613 2162 2613 1712 Q 2613 1262 2488 1262" style="fill:red;stroke:black;stroke-width:5"/>
  <circle cx="1012" cy="2162" r="175" style="fill:red;stroke:black;stroke-width:5"/>
  <circle cx="2487" cy="2162" r="175" style="fill:red;stroke:black;stroke-width:5"/>
  <path  d="M 1137 1294 Q 1137 1452 1192 1557 Q 1247 1662 1302 1793 Q 1357 1924 1357 2055 Q 1357 2187 1749 2187 Q 2141 2187 2141 2056 Q 2141 1924 2196 1793 Q 2251 1662 2306 1557 Q 2362 1452 2362 1295 Q 2362 1137 1750 1137 Q 1137 1137 1137 1294" style="fill:red;stroke:black;stroke-width:5"/>
  <path  d="M 1999 921 L 2018 1000 L 2043 1000 Q 2068 1000 2062 922 Q 2055 843 2055 750 Q 2055 656 2018 749 Q 1980 843 1999 921" style="fill:red;stroke:black;stroke-width:5"/>
  <path  d="M 1499 921 L 1480 1000 L 1455 1000 Q 1430 1000 1436 922 Q 1443 843 1443 750 Q 1443 656 1480 749 Q 1518 843 1499 921" style="fill:red;stroke:black;stroke-width:5"/>
  <path  d="M 1506 828 Q 1468 1000 1514 1062 Q 1561 1125 1749 1125 Q 1937 1125 1983 1063 Q 2030 1000 1993 828 Q 1955 656 1915 578 Q 1874 500 1749 500 Q 1624 500 1584 578 Q 1543 656 1506 828" style="fill:red;stroke:black;stroke-width:5"/>
  <ellipse  cx="1651" cy="843" rx="60" ry="45" style="fill:yellow;stroke:yellow;stroke-width:0"/>
  <path  d="M 1651 798 A 90 90, 0, 0, 0, 1651 888 A 90 90, 0, 0, 0, 1651 798 Z" style="fill:blue;stroke:blue;stroke-width:0"/>
  <ellipse  cx="1847" cy="843" rx="60" ry="45" style="fill:yellow;stroke:yellow;stroke-width:0"/>
  <path  d="M 1847 798 A 90 90, 0, 0, 0, 1847 888 A 90 90, 0, 0, 0, 1847 798 Z" style="fill:blue;stroke:blue;stroke-width:0"/>
  <path  d="M 1621 780 L 1651 771 L 1681 780 Q 1711 789 1711 776 Q 1711 762 1681 753 L 1651 744 L 1621 753 Q 1591 762 1591 775 Q 1591 789 1621 780" style="fill:black;stroke:black;stroke-width:0"/>
  <path  d="M 1817 780 L 1847 771 L 1877 780 Q 1907 789 1907 776 Q 1907 762 1877 753 L 1847 744 L 1817 753 Q 1787 762 1787 775 Q 1787 789 1817 780" style="fill:black;stroke:black;stroke-width:0"/>
  <path  d="M 1651 1000 L 1847 1000" style="fill:none;stroke:black;stroke-width:5"/>
  <path  d="M 1715 1000 L 1690 1100 L 1665 1000 Z" style="fill:#ffffff;stroke:black;stroke-width:1"/>
  <path  d="M 1833 1000 L 1808 1100 L 1783 1000 Z" style="fill:#ffffff;stroke:black;stroke-width:1"/>
</svg>