<svg viewBox="0 0 2500 2500" xmlns="http://www.w3.org/2000/svg">
  <rect x="0" y="0" width="2500" height="2500" style="fill:white;stroke:black;stroke-width:5"/>
  <path  d="M 1360 1992 L 1342 1976 L 1327 1952 L 1315 1920 L 1306 1881 L 1300 1833 L 1297 1777 L 1297 1713 L 1299 1657 L 1305 1609 L 1314 1569 L 1326 1537 L 1340 1513 L 1358 1497 L 1378 1489 L 1402 1489 L 1423 1496 L 1441 1512 L 1456 1536 L 1468 1568 L 1477 1607 L 1483 1655 L 1486 1711 L 1486 1775 L 1484 1831 L 1478 1879 L 1469 1919 L 1457 1951 L 1443 1975 L 1425 1991 L 1405 1999 L 1381 1999 Z" style="fill:#fee4d0;stroke:black;stroke-width:30"/>
  <path  d="M 1076 1992 L 1058 1976 L 1043 1952 L 1031 1920 L 1022 1881 L 1016 1833 L 1013 1777 L 1013 1713 L 1015 1657 L 1021 1609 L 1030 1569 L 1042 1537 L 1056 1513 L 1074 1497 L 1094 1489 L 1118 1489 L 1139 1496 L 1157 1512 L 1172 1536 L 1184 1568 L 1193 1607 L 1199 1655 L 1202 1711 L 1202 1775 L 1200 1831 L 1194 1879 L 1185 1919 L 1173 1951 L 1159 1975 L 1141 1991 L 1121 1999 L 1097 1999 Z" style="fill:#fee4d0;stroke:black;stroke-width:30"/>
  <path  d="M 1512 2000 A 121 121 0 0 0 1270 2000 Z" style="fill:#fee4d0;stroke:black;stroke-width:30"/>
  <path  d="M 1229 2000 A 121 121 0 0 0 987 2000 Z" style="fill:#fee4d0;stroke:black;stroke-width:30"/>
  <path  d="M 923 1422 L 911 1406 L 900 1380 L 892 1346 L 885 1304 L 881 1254 L 878 1195 L 878 1127 L 880 1068 L 884 1018 L 890 975 L 898 941 L 908 916 L 921 899 L 936 890 L 953 890 L 968 890 L 980 890 L 991 890 L 999 890 L 1006 890 L 1010 890 L 1013 890 L 1013 890 L 1013 898 L 1013 914 L 1013 940 L 1013 974 L 1013 1016 L 1013 1066 L 1013 1125 L 1013 1193 L 1011 1252 L 1007 1302 L 1001 1345 L 993 1379 L 983 1404 L 970 1421 L 955 1430 L 938 1430 Z" style="fill:#fee4d0;stroke:black;stroke-width:30"/>
  <path  d="M 1577 1422 L 1589 1406 L 1600 1380 L 1608 1346 L 1615 1304 L 1619 1254 L 1622 1195 L 1622 1127 L 1620 1068 L 1616 1018 L 1610 975 L 1602 941 L 1592 916 L 1579 899 L 1564 890 L 1547 890 L 1532 890 L 1520 890 L 1509 890 L 1501 890 L 1494 890 L 1490 890 L 1487 890 L 1487 890 L 1487 898 L 1487 914 L 1487 940 L 1487 974 L 1487 1016 L 1487 1066 L 1487 1125 L 1487 1193 L 1489 1252 L 1493 1302 L 1499 1345 L 1507 1379 L 1517 1404 L 1530 1421 L 1545 1430 L 1562 1430 Z" style="fill:#fee4d0;stroke:black;stroke-width:30"/>
  <circle cx="946" cy="1430" r="94" style="fill:#fee4d0;stroke:black;stroke-width:30"/>
  <circle cx="1553" cy="1430" r="94" style="fill:#fee4d0;stroke:black;stroke-width:30"/>
  <path  d="M 1478 890 L 1464 869 L 1442 851 L 1412 837 L 1375 827 L 1331 819 L 1279 815 L 1220 815 L 1168 818 L 1124 825 L 1088 836 L 1058 850 L 1036 867 L 1021 888 L 1013 913 L 1013 941 L 1013 967 L 1013 993 L 1013 1017 L 1013 1041 L 1013 1063 L 1013 1084 L 1013 1104 L 1013 1123 L 1013 1143 L 1013 1163 L 1013 1183 L 1013 1204 L 1013 1226 L 1013 1248 L 1013 1270 L 1013 1294 L 1013 1317 L 1013 1341 L 1013 1364 L 1013 1388 L 1013 1411 L 1013 1435 L 1013 1458 L 1013 1482 L 1020 1502 L 1034 1520 L 1056 1535 L 1086 1547 L 1123 1556 L 1167 1562 L 1219 1565 L 1278 1565 L 1330 1563 L 1374 1557 L 1410 1548 L 1440 1536 L 1462 1522 L 1477 1504 L 1485 1484 L 1485 1460 L 1485 1437 L 1485 1413 L 1485 1390 L 1485 1367 L 1485 1344 L 1485 1320 L 1485 1297 L 1485 1273 L 1485 1250 L 1485 1228 L 1485 1206 L 1485 1185 L 1485 1165 L 1485 1145 L 1485 1126 L 1485 1107 L 1485 1087 L 1485 1066 L 1485 1044 L 1485 1020 L 1485 995 L 1485 969 L 1485 942 L 1485 914 Z" style="fill:#fee4d0;stroke:black;stroke-width:30"/>
  <path  d="M 1485 630 L 1483 622 L 1481 618 L 1478 618 L 1474 621 L 1469 629 L 1463 641 L 1457 657 L 1451 672 L 1446 687 L 1442 702 L 1439 717 L 1436 732 L 1434 746 L 1433 759 L 1433 773 L 1433 785 L 1433 795 L 1433 803 L 1433 810 L 1433 815 L 1433 819 L 1433 821 L 1433 821 L 1433 821 L 1434 821 L 1436 821 L 1438 821 L 1440 821 L 1443 821 L 1447 821 L 1451 821 L 1456 820 L 1460 817 L 1463 812 L 1466 806 L 1469 797 L 1472 787 L 1475 776 L 1477 762 L 1478 748 L 1480 734 L 1481 720 L 1482 705 L 1483 690 L 1484 674 L 1485 658 L 1485 642 Z" style="fill:#fee4d0;stroke:black;stroke-width:30"/>
  <path  d="M 1014 630 L 1016 622 L 1018 618 L 1021 618 L 1025 621 L 1029 629 L 1035 641 L 1041 657 L 1047 672 L 1052 687 L 1056 702 L 1059 717 L 1062 732 L 1064 746 L 1065 759 L 1065 773 L 1065 785 L 1065 795 L 1065 803 L 1065 810 L 1065 815 L 1065 819 L 1065 821 L 1065 821 L 1065 821 L 1064 821 L 1062 821 L 1060 821 L 1058 821 L 1055 821 L 1051 821 L 1047 821 L 1043 820 L 1039 817 L 1036 812 L 1033 806 L 1030 797 L 1027 787 L 1024 776 L 1022 762 L 1021 748 L 1019 734 L 1018 720 L 1017 705 L 1016 690 L 1015 674 L 1014 658 L 1014 642 Z" style="fill:#fee4d0;stroke:black;stroke-width:30"/>
  <path  d="M 1369 536 L 1353 526 L 1337 518 L 1319 511 L 1301 506 L 1281 502 L 1261 500 L 1239 500 L 1219 501 L 1199 504 L 1181 509 L 1164 515 L 1148 524 L 1132 534 L 1118 545 L 1104 559 L 1092 574 L 1082 591 L 1074 610 L 1067 630 L 1062 651 L 1058 674 L 1056 699 L 1056 726 L 1057 751 L 1060 775 L 1065 797 L 1071 817 L 1080 835 L 1090 852 L 1101 867 L 1115 881 L 1129 893 L 1145 903 L 1161 911 L 1179 918 L 1197 923 L 1217 927 L 1237 929 L 1259 929 L 1279 928 L 1299 925 L 1317 920 L 1334 913 L 1350 904 L 1366 894 L 1380 883 L 1394 869 L 1406 854 L 1416 837 L 1424 818 L 1431 798 L 1436 777 L 1440 754 L 1442 729 L 1442 702 L 1441 677 L 1438 653 L 1433 631 L 1427 611 L 1418 593 L 1408 577 L 1397 562 L 1383 548 Z" style="fill:#fee4d0;stroke:black;stroke-width:30"/>
  <ellipse  cx="1172" cy="714" rx="48" ry="36" style="fill:white;stroke:white;stroke-width:0"/>
  <circle cx="1172" cy="714" r="18" style="fill:blue;stroke:blue;stroke-width:0"/>
  <ellipse  cx="1326" cy="714" rx="48" ry="36" style="fill:white;stroke:white;stroke-width:0"/>
  <circle cx="1326" cy="714" r="18" style="fill:blue;stroke:blue;stroke-width:0"/>
  <path  d="M 1152 821 L 1346 821" style="fill:none;stroke:black;stroke-width:18"/>
  <path  d="M 1382 528 L 1365 517 L 1347 508 L 1328 500 L 1308 494 L 1286 490 L 1264 488 L 1240 488 L 1218 489 L 1196 493 L 1176 498 L 1157 505 L 1139 514 L 1123 525 L 1107 538 L 1092 553 L 1079 568 L 1068 582 L 1059 597 L 1051 612 L 1045 627 L 1041 641 L 1039 656 L 1039 670 L 1039 683 L 1039 694 L 1040 703 L 1041 711 L 1043 717 L 1045 721 L 1047 723 L 1049 723 L 1053 722 L 1057 718 L 1061 713 L 1067 706 L 1073 697 L 1080 686 L 1088 673 L 1096 659 L 1103 645 L 1109 633 L 1114 621 L 1118 611 L 1121 602 L 1123 594 L 1124 586 L 1124 580 L 1124 576 L 1124 573 L 1124 571 L 1124 571 L 1124 572 L 1124 574 L 1124 579 L 1124 585 L 1127 590 L 1135 594 L 1147 598 L 1163 601 L 1182 603 L 1206 605 L 1234 606 L 1266 606 L 1295 607 L 1321 611 L 1344 616 L 1364 623 L 1381 632 L 1395 643 L 1406 656 L 1414 670 L 1421 683 L 1427 694 L 1433 703 L 1438 711 L 1443 717 L 1447 721 L 1450 723 L 1452 723 L 1455 722 L 1457 718 L 1458 713 L 1460 706 L 1461 697 L 1462 686 L 1463 673 L 1463 659 L 1462 644 L 1458 630 L 1453 615 L 1446 600 L 1437 585 L 1426 571 L 1413 556 L 1398 541 Z" style="fill:yellow;stroke:black;stroke-width:30"/>
</svg>