<svg viewBox="0 0 2500 2500" xmlns="http://www.w3.org/2000/svg">
  <rect x="0" y="0" width="2500" height="2500" style="fill:white;stroke:black;stroke-width:5"/>
  <path  d="M 1360 1992 L 1342 1976 L 1327 1952 L 1315 1920 L 1306 1881 L 1300 1833 L 1297 1777 L 1297 1713 L 1299 1657 L 1305 1609 L 1314 1569 L 1326 1537 L 1340 1513 L 1358 1497 L 1378 1489 L 1402 1489 L 1423 1496 L 1441 1512 L 1456 1536 L 1468 1568 L 1477 1607 L 1483 1655 L 1486 1711 L 1486 1775 L 1484 1831 L 1478 1879 L 1469 1919 L 1457 1951 L 1443 1975 L 1425 1991 L 1405 1999 L 1381 1999 Z" style="fill:white;stroke:black;stroke-width:30"/>
  <path  d="M 1076 1992 L 1058 1976 L 1043 1952 L 1031 1920 L 1022 1881 L 1016 1833 L 1013 1777 L 1013 1713 L 1015 1657 L 1021 1609 L 1030 1569 L 1042 1537 L 1056 1513 L 1074 1497 L 1094 1489 L 1118 1489 L 1139 1496 L 1157 1512 L 1172 1536 L 1184 1568 L 1193 1607 L 1199 1655 L 1202 1711 L 1202 1775 L 1200 1831 L 1194 1879 L 1185 1919 L 1173 1951 L 1159 1975 L 1141 1991 L 1121 1999 L 1097 1999 Z" style="fill:white;stroke:black;stroke-width:30"/>
  <path  d="M 1512 2000 A 121 121 0 0 0 1270 2000 Z" style="fill:white;stroke:black;stroke-width:30"/>
  <path  d="M 1229 2000 A 121 121 0 0 0 987 2000 Z" style="fill:white;stroke:black;stroke-width:30"/>
  <path  d="M 923 1422 L 911 1406 L 900 1380 L 892 1346 L 885 1304 L 881 1254 L 878 1195 L 878 1127 L 880 1068 L 884 1018 L 890 975 L 898 941 L 908 916 L 921 899 L 936 890 L 953 890 L 968 890 L 980 890 L 991 890 L 999 890 L 1006 890 L 1010 890 L 1013 890 L 1013 890 L 1013 898 L 1013 914 L 1013 940 L 1013 974 L 1013 1016 L 1013 1066 L 1013 1125 L 1013 1193 L 1011 1252 L 1007 1302 L 1001 1345 L 993 1379 L 983 1404 L 970 1421 L 955 1430 L 938 1430 Z" style="fill:white;stroke:black;stroke-width:30"/>
  <path  d="M 1577 1422 L 1589 1406 L 1600 1380 L 1608 1346 L 1615 1304 L 1619 1254 L 1622 1195 L 1622 1127 L 1620 1068 L 1616 1018 L 1610 975 L 1602 941 L 1592 916 L 1579 899 L 1564 890 L 1547 890 L 1532 890 L 1520 890 L 1509 890 L 1501 890 L 1494 890 L 1490 890 L 1487 890 L 1487 890 L 1487 898 L 1487 914 L 1487 940 L 1487 974 L 1487 1016 L 1487 1066 L 1487 1125 L 1487 1193 L 1489 1252 L 1493 1302 L 1499 1345 L 1507 1379 L 1517 1404 L 1530 1421 L 1545 1430 L 1562 1430 Z" style="fill:white;stroke:black;stroke-width:30"/>
  <circle cx="946" cy="1430" r="94" style="fill:white;stroke:black;stroke-width:30"/>
  <circle cx="1553" cy="1430" r="94" style="fill:white;stroke:black;stroke-width:30"/>
  <path  d="M 1478 890 L 1464 869 L 1442 851 L 1412 837 L 1375 827 L 1331 819 L 1279 815 L 1220 815 L 1168 818 L 1124 825 L 1088 836 L 1058 850 L 1036 867 L 1021 888 L 1013 913 L 1013 941 L 1014 967 L 1016 993 L 1019 1017 L 1023 1041 L 1028 1063 L 1034 1084 L 1042 1104 L 1051 1123 L 1058 1143 L 1062 1163 L 1065 1183 L 1065 1204 L 1064 1226 L 1060 1248 L 1054 1270 L 1045 1294 L 1037 1317 L 1031 1341 L 1025 1364 L 1021 1388 L 1017 1411 L 1015 1435 L 1013 1458 L 1013 1482 L 1020 1502 L 1034 1520 L 1056 1535 L 1086 1547 L 1123 1556 L 1167 1562 L 1219 1565 L 1278 1565 L 1330 1563 L 1374 1557 L 1410 1548 L 1440 1536 L 1462 1522 L 1477 1504 L 1485 1484 L 1485 1460 L 1484 1437 L 1482 1413 L 1479 1390 L 1475 1367 L 1470 1344 L 1463 1320 L 1455 1297 L 1446 1273 L 1439 1250 L 1435 1228 L 1432 1206 L 1432 1185 L 1434 1165 L 1438 1145 L 1444 1126 L 1453 1107 L 1461 1087 L 1467 1066 L 1473 1044 L 1477 1020 L 1481 995 L 1483 969 L 1485 942 L 1485 914 Z" style="fill:white;stroke:black;stroke-width:30"/>
  <path  d="M 1426 750 L 1426 740 L 1426 732 L 1424 725 L 1421 720 L 1417 716 L 1412 714 L 1406 714 L 1400 715 L 1395 718 L 1391 723 L 1388 729 L 1385 738 L 1383 748 L 1382 759 L 1382 773 L 1382 785 L 1382 795 L 1382 803 L 1382 810 L 1382 815 L 1382 819 L 1382 821 L 1382 821 L 1382 821 L 1383 821 L 1385 821 L 1387 821 L 1389 821 L 1392 821 L 1396 821 L 1400 821 L 1404 820 L 1408 817 L 1411 812 L 1414 806 L 1417 797 L 1420 787 L 1423 776 L 1425 762 Z" style="fill:white;stroke:black;stroke-width:30"/>
  <path  d="M 1072 750 L 1072 740 L 1072 732 L 1074 725 L 1077 720 L 1081 716 L 1086 714 L 1092 714 L 1098 715 L 1103 718 L 1107 723 L 1110 729 L 1113 738 L 1115 748 L 1116 759 L 1116 773 L 1116 785 L 1116 795 L 1116 803 L 1116 810 L 1116 815 L 1116 819 L 1116 821 L 1116 821 L 1116 821 L 1115 821 L 1113 821 L 1111 821 L 1109 821 L 1106 821 L 1102 821 L 1098 821 L 1094 820 L 1090 817 L 1087 812 L 1084 806 L 1081 797 L 1078 787 L 1075 776 L 1073 762 Z" style="fill:white;stroke:black;stroke-width:30"/>
  <path  d="M 1351 536 L 1341 526 L 1328 518 L 1314 511 L 1298 506 L 1280 502 L 1261 500 L 1239 500 L 1219 501 L 1201 504 L 1185 509 L 1171 515 L 1159 524 L 1148 534 L 1139 545 L 1132 559 L 1126 574 L 1121 591 L 1117 610 L 1113 630 L 1110 651 L 1108 674 L 1107 699 L 1107 726 L 1108 751 L 1111 775 L 1116 797 L 1122 817 L 1129 835 L 1138 852 L 1149 867 L 1161 881 L 1174 893 L 1186 903 L 1197 911 L 1209 918 L 1220 923 L 1231 927 L 1242 929 L 1253 929 L 1264 928 L 1275 925 L 1286 920 L 1298 913 L 1310 904 L 1322 894 L 1334 883 L 1346 869 L 1357 854 L 1367 837 L 1375 818 L 1381 798 L 1385 777 L 1389 754 L 1391 729 L 1391 702 L 1391 677 L 1389 653 L 1387 631 L 1383 611 L 1379 593 L 1373 577 L 1367 562 L 1360 548 Z" style="fill:white;stroke:black;stroke-width:30"/>
  <ellipse  cx="1192" cy="714" rx="35" ry="26" style="fill:silver;stroke:silver;stroke-width:0"/>
  <circle cx="1192" cy="714" r="13" style="fill:red;stroke:red;stroke-width:0"/>
  <ellipse  cx="1306" cy="714" rx="35" ry="26" style="fill:silver;stroke:silver;stroke-width:0"/>
  <circle cx="1306" cy="714" r="13" style="fill:red;stroke:red;stroke-width:0"/>
  <path  d="M 1178 821 L 1320 821" style="fill:none;stroke:black;stroke-width:18"/>
  <path  d="M 1217 821 L 1207 863 L 1197 821 Z" style="fill:#ffffff;stroke:black;stroke-width:3"/>
  <path  d="M 1301 821 L 1291 863 L 1281 821 Z" style="fill:#ffffff;stroke:black;stroke-width:3"/>
  <path  d="M 1362 528 L 1350 517 L 1336 508 L 1320 500 L 1303 494 L 1283 490 L 1262 488 L 1238 488 L 1217 489 L 1197 493 L 1180 498 L 1164 505 L 1151 514 L 1139 525 L 1129 538 L 1121 553 L 1114 568 L 1108 582 L 1103 597 L 1099 612 L 1096 627 L 1094 641 L 1093 656 L 1093 670 L 1093 683 L 1093 694 L 1094 703 L 1095 711 L 1096 717 L 1098 721 L 1100 723 L 1102 723 L 1104 722 L 1107 720 L 1111 715 L 1115 709 L 1119 702 L 1123 693 L 1129 682 L 1135 670 L 1141 660 L 1148 651 L 1156 643 L 1165 637 L 1175 633 L 1185 630 L 1195 628 L 1207 628 L 1217 626 L 1226 622 L 1234 616 L 1240 607 L 1244 596 L 1247 583 L 1249 568 L 1249 550 L 1249 537 L 1249 528 L 1249 523 L 1249 523 L 1249 527 L 1249 535 L 1249 548 L 1249 566 L 1250 581 L 1252 594 L 1257 605 L 1263 614 L 1270 621 L 1278 625 L 1288 628 L 1300 628 L 1311 629 L 1321 631 L 1330 636 L 1339 642 L 1347 649 L 1354 658 L 1361 669 L 1367 681 L 1372 691 L 1377 700 L 1382 708 L 1386 714 L 1389 718 L 1392 721 L 1395 723 L 1397 723 L 1398 722 L 1400 718 L 1401 713 L 1402 706 L 1403 697 L 1404 686 L 1405 673 L 1405 659 L 1405 644 L 1403 630 L 1400 615 L 1396 600 L 1392 585 L 1386 571 L 1379 556 L 1371 541 Z" style="fill:saddlebrown;stroke:black;stroke-width:30"/>
</svg>